<?xml version="1.0" encoding="utf-8"?>
<!-- Generator: Adobe Illustrator 16.0.3, SVG Export Plug-In . SVG Version: 6.00 Build 0)  -->
<!DOCTYPE svg PUBLIC "-//W3C//DTD SVG 1.1//EN" "http://www.w3.org/Graphics/SVG/1.1/DTD/svg11.dtd">
<svg version="1.1" id="Layer_1" xmlns="http://www.w3.org/2000/svg" xmlns:xlink="http://www.w3.org/1999/xlink" x="0px" y="0px"
	 width="960px" height="560px" viewBox="0 0 960 560" enable-background="new 0 0 960 560" xml:space="preserve">
<line fill="none" stroke="#000000" stroke-width="2" stroke-miterlimit="10" x1="44" y1="35" x2="44" y2="482"/>
<line fill="none" stroke="#000000" stroke-width="2" stroke-miterlimit="10" x1="44" y1="482" x2="865" y2="482"/>
<path fill="none" stroke="#FF0000" stroke-width="3" stroke-miterlimit="10" d="M848,482l-27.333-2.998l-6.5-1.5
	c0,0-9.5-2.279-21-6.5c-8.865-3.257-8.667-11.502-8.667-11.502s-9.49-187.18-21.333-253.5c-5-28-7.792-36-15.167-36
	c-7.75,0-29.438,7.223-36,12.875c-43.93,37.848-120.494,173.794-130.75,191.375C575.916,381.738,563,398,525.5,402.5
	c-1.539,0.161-29.498,5.325-96.5,3.75c-84.292-1.98-116.167,2.918-219.5,16.584C155.455,429.982,112,440,112,440
	s-22.26,8.498-29.125,13.125C71.873,460.544,61.25,467.75,61.25,467.75L44,482"/>
<g>
	<g>
		<line fill="none" stroke="#000000" stroke-width="2" stroke-miterlimit="10" x1="750" y1="14" x2="750" y2="17"/>
		
			<line fill="none" stroke="#000000" stroke-width="2" stroke-miterlimit="10" stroke-dasharray="6,6" x1="750" y1="23" x2="750" y2="496"/>
		<line fill="none" stroke="#000000" stroke-width="2" stroke-miterlimit="10" x1="750" y1="499" x2="750" y2="502"/>
	</g>
</g>
<g>
	<g>
		<line fill="none" stroke="#000000" stroke-width="2" stroke-miterlimit="10" x1="553" y1="14" x2="553" y2="17"/>
		
			<line fill="none" stroke="#000000" stroke-width="2" stroke-miterlimit="10" stroke-dasharray="6,6" x1="553" y1="23" x2="553" y2="496"/>
		<line fill="none" stroke="#000000" stroke-width="2" stroke-miterlimit="10" x1="553" y1="499" x2="553" y2="502"/>
	</g>
</g>
<g>
	<g>
		<line fill="none" stroke="#000000" stroke-width="2" stroke-miterlimit="10" x1="112" y1="14" x2="112" y2="17"/>
		
			<line fill="none" stroke="#000000" stroke-width="2" stroke-miterlimit="10" stroke-dasharray="6,6" x1="112" y1="23" x2="112" y2="496"/>
		<line fill="none" stroke="#000000" stroke-width="2" stroke-miterlimit="10" x1="112" y1="499" x2="112" y2="502"/>
	</g>
</g>
<g>
	<g>
		<line fill="none" stroke="#000000" stroke-width="2" stroke-miterlimit="10" x1="848" y1="12" x2="848" y2="15"/>
		
			<line fill="none" stroke="#000000" stroke-width="2" stroke-miterlimit="10" stroke-dasharray="6,6" x1="848" y1="21" x2="848" y2="494"/>
		<line fill="none" stroke="#000000" stroke-width="2" stroke-miterlimit="10" x1="848" y1="497" x2="848" y2="500"/>
	</g>
</g>
<path fill="none" stroke="#000000" stroke-width="2" stroke-miterlimit="10" d="M200.333,300"/>
<path fill="none" stroke="#000000" stroke-width="2" stroke-miterlimit="10" d="M433,326.335"/>
<path fill="none" stroke="#39B54A" stroke-width="2" stroke-miterlimit="10" d="M848,482l-34.833-8.832l-28.169-10.556L750,447.835
	c0,0-19.5-7.5-49.5-22c-32.121-15.525-55.833-31.333-55.833-31.333L602.25,363.75c0,0-15.875-13.125-26.333-17.332
	c-11.334-4.416-22.5-6.084-22.5-6.084c-16.21-2.668-11.584-2.25-67.584-9.5c0,0-85-13.938-175.333-13.584
	c-34.254,0.136-107.348,5.252-142,9.084c-37.667,4.166-56.5,22.5-56.5,22.5s-8.634,6.802-14.833,13
	c-8.331,8.334-13.463,19.413-13.463,19.413L44,482"/>
<line fill="none" stroke="#000000" stroke-width="2" stroke-miterlimit="10" x1="44" y1="95" x2="865" y2="95"/>
<rect x="11" y="88.5" fill="none" width="26" height="26.5"/>
<text transform="matrix(1 0 0 1 28.6577 99.24)" font-family="'ArialMT'" font-size="15">1</text>
<path fill="none" stroke="#FF00FF" stroke-width="2" stroke-miterlimit="10" d="M848,482l-16.75-8c0,0-11.25-5.75-25.75-16.25
	c-10.531-7.625-13.25-31.25-13.25-31.25L775,171.5c0,0-4.022-46.391-10.022-60.938c-1.045-2.533-3.603-13.088-14.978-13.063
	c-11.268,0.025-32.324,26.729-32.324,26.729S632.731,226.029,597.583,257.75C583.917,270.083,553,269,553,269l-441,11
	c0,0-12.625-1-15.25,6C89.297,305.875,44,482,44,482"/>
<path fill="none" stroke="#0000FF" stroke-width="2" stroke-miterlimit="10" d="M846.5,147.833
	c-43.377-0.448-58.566,1.204-70.937-10.732c-4.75-4.583-10.688-14.726-13.188-28.601C760.421,97.656,750,97.5,750,97.5
	s-9.25,0-84.75,18.75C590.651,134.776,578.625,150,553,151l-257.5,1c0,0-96.569,2.366-126.5,3
	c-42.005,0.89-52.189,0.329-88.833,2.167C58.065,157.012,44,158.5,44,158.5"/>
<g>
	<g>
		<line fill="none" stroke="#000000" stroke-width="2" stroke-miterlimit="10" x1="604" y1="303" x2="604" y2="306"/>
		
			<line fill="none" stroke="#000000" stroke-width="2" stroke-miterlimit="10" stroke-dasharray="6,6" x1="604" y1="312" x2="604" y2="496"/>
		<line fill="none" stroke="#000000" stroke-width="2" stroke-miterlimit="10" x1="604" y1="499" x2="604" y2="502"/>
	</g>
</g>
<rect x="24.667" y="504" fill="none" width="24.667" height="20.668"/>
<text transform="matrix(1 0 0 1 40.9907 514.74)" font-family="'ArialMT'" font-size="15">0</text>
<rect x="108.667" y="506.335" fill="none" width="32" height="25.334"/>
<text transform="matrix(1 0 0 1 119.8149 517.074)" font-family="'ArialMT'" font-size="15">t_1</text>
<rect x="538.333" y="508.335" fill="none" width="31.333" height="21.334"/>
<text transform="matrix(1 0 0 1 543.5732 519.074)" font-family="'ArialMT'" font-size="15">t_2</text>
<rect x="587.333" y="508.335" fill="none" width="63.333" height="21.331"/>
<text transform="matrix(1 0 0 1 591.9072 519.074)" font-family="'ArialMT'" font-size="15">t_x-over</text>
<rect x="703" y="507.375" fill="none" width="65.5" height="23.25"/>
<text transform="matrix(1 0 0 1 716.9814 518.115)" font-family="'ArialMT'" font-size="15">t_end</text>
<rect x="826" y="507.835" fill="none" width="44.5" height="12.999"/>
<text transform="matrix(1 0 0 1 837.8242 518.574)" font-family="'ArialMT'" font-size="15">t_3</text>
<line fill="none" stroke="#FF0000" stroke-width="2" stroke-miterlimit="10" x1="66" y1="541" x2="105" y2="541"/>
<rect x="114" y="533.834" fill="none" width="62.333" height="14.334"/>
<text transform="matrix(1 0 0 1 116.811 544.574)" font-family="'ArialMT'" font-size="15">adaptive</text>
<line fill="none" stroke="#39B54A" stroke-width="2" stroke-miterlimit="10" x1="203" y1="541" x2="242" y2="541"/>
<rect x="251" y="533.834" fill="none" width="64" height="14.334"/>
<text transform="matrix(1 0 0 1 252.7803 544.574)" font-family="'ArialMT'" font-size="15">corr+perf</text>
<line fill="none" stroke="#FF00FF" stroke-width="2" stroke-miterlimit="10" x1="336" y1="541" x2="375" y2="541"/>
<rect x="384" y="533.834" fill="none" width="86.667" height="14.334"/>
<text transform="matrix(1 0 0 1 386.0757 544.574)" font-family="'ArialMT'" font-size="15">commit freq.</text>
<line fill="none" stroke="#0000FF" stroke-width="2" stroke-miterlimit="10" x1="489" y1="541" x2="528" y2="541"/>
<rect x="537" y="533.834" fill="none" width="86.666" height="14.334"/>
<text transform="matrix(1 0 0 1 537.8086 544.574)" font-family="'ArialMT'" font-size="15">code-density</text>
</svg>
